<svg width="92" height="32" viewBox="0 0 92 32" fill="none" xmlns="http://www.w3.org/2000/svg">
<rect width="92" height="32" fill="#1E2832"/>
<path d="M18.082 10.2539C18.2734 9.87109 18.6562 9.625 19.0938 9.625H30.9062C31.3164 9.625 31.6992 9.87109 31.8906 10.2539C32.0547 10.6367 32 11.1016 31.7266 11.4297L26.75 17.5273V21C26.75 21.3555 26.5586 21.6562 26.2578 21.793C25.957 21.9297 25.6016 21.9023 25.3281 21.7109L23.5781 20.3984C23.3594 20.2344 23.25 19.9883 23.25 19.6875V17.5273L18.2461 11.4297C17.9727 11.1016 17.918 10.6367 18.082 10.2539Z" fill="white"/>
<path d="M41.8906 22H40.5625V10.5781H46.9219V11.75H41.8906V15.9375H46.6172V17.1016H41.8906V22ZM49.9297 13.4375V22H48.6328V13.4375H49.9297ZM49.2969 10.2344C49.5104 10.2344 49.6927 10.3047 49.8438 10.4453C50 10.5807 50.0781 10.7943 50.0781 11.0859C50.0781 11.3724 50 11.5859 49.8438 11.7266C49.6927 11.8672 49.5104 11.9375 49.2969 11.9375C49.0729 11.9375 48.8854 11.8672 48.7344 11.7266C48.5885 11.5859 48.5156 11.3724 48.5156 11.0859C48.5156 10.7943 48.5885 10.5807 48.7344 10.4453C48.8854 10.3047 49.0729 10.2344 49.2969 10.2344ZM53.9844 22H52.6797V9.84375H53.9844V22ZM59.4922 21.0938C59.7057 21.0938 59.9245 21.0755 60.1484 21.0391C60.3724 21.0026 60.5547 20.9583 60.6953 20.9062V21.9141C60.5443 21.9818 60.3333 22.0391 60.0625 22.0859C59.7969 22.1328 59.5365 22.1562 59.2812 22.1562C58.8281 22.1562 58.4167 22.0781 58.0469 21.9219C57.6771 21.7604 57.3802 21.4896 57.1562 21.1094C56.9375 20.7292 56.8281 20.2031 56.8281 19.5312V14.4531H55.6094V13.8203L56.8359 13.3125L57.3516 11.4531H58.1328V13.4375H60.6406V14.4531H58.1328V19.4922C58.1328 20.0286 58.2552 20.4297 58.5 20.6953C58.75 20.9609 59.0807 21.0938 59.4922 21.0938ZM65.7266 13.2812C66.4557 13.2812 67.0807 13.4427 67.6016 13.7656C68.1224 14.0885 68.5208 14.5417 68.7969 15.125C69.0729 15.7031 69.2109 16.3802 69.2109 17.1562V17.9609H63.2969C63.3125 18.9661 63.5625 19.7318 64.0469 20.2578C64.5312 20.7839 65.2135 21.0469 66.0938 21.0469C66.6354 21.0469 67.1146 20.9974 67.5312 20.8984C67.9479 20.7995 68.3802 20.6536 68.8281 20.4609V21.6016C68.3958 21.7943 67.9661 21.9349 67.5391 22.0234C67.1172 22.112 66.6172 22.1562 66.0391 22.1562C65.2161 22.1562 64.4974 21.9896 63.8828 21.6562C63.2734 21.3177 62.7995 20.8229 62.4609 20.1719C62.1224 19.5208 61.9531 18.724 61.9531 17.7812C61.9531 16.8594 62.1068 16.0625 62.4141 15.3906C62.7266 14.7135 63.1641 14.1927 63.7266 13.8281C64.2943 13.4635 64.9609 13.2812 65.7266 13.2812ZM65.7109 14.3438C65.0182 14.3438 64.4661 14.5703 64.0547 15.0234C63.6432 15.4766 63.3984 16.1094 63.3203 16.9219H67.8516C67.8464 16.4115 67.7656 15.9635 67.6094 15.5781C67.4583 15.1875 67.2266 14.8854 66.9141 14.6719C66.6016 14.4531 66.2005 14.3438 65.7109 14.3438ZM75.3047 13.2812C75.4766 13.2812 75.6562 13.2917 75.8438 13.3125C76.0312 13.3281 76.1979 13.3516 76.3438 13.3828L76.1797 14.5859C76.0391 14.5495 75.8828 14.5208 75.7109 14.5C75.5391 14.4792 75.3776 14.4688 75.2266 14.4688C74.8828 14.4688 74.5573 14.5391 74.25 14.6797C73.9479 14.8151 73.6823 15.013 73.4531 15.2734C73.224 15.5286 73.0443 15.8385 72.9141 16.2031C72.7839 16.5625 72.7188 16.9635 72.7188 17.4062V22H71.4141V13.4375H72.4922L72.6328 15.0156H72.6875C72.8646 14.6979 73.0781 14.4089 73.3281 14.1484C73.5781 13.8828 73.8672 13.6719 74.1953 13.5156C74.5286 13.3594 74.8984 13.2812 75.3047 13.2812Z" fill="white"/>
</svg>
